PathFileType	4	(X/Y/Z)	36_2_rein_74_p1_0-270_filt_butterworth.trc
DataRate	CameraRate	NumFrames	NumMarkers	Units	OrigDataRate	OrigDataStartFrame	OrigNumFrames
44.0	44.0	6	27	m	44.0	236	270
Frame#	Time	RHip			RKnee			RAnkle			RBigToe			RSmallToe			RHeel			LHip			LKnee			LAnkle			LBigToe			LSmallToe			LHeel			Neck			Head			Nose			RShoulder			RElbow			RWrist			RThumb			RIndex			RPinky			LShoulder			LElbow			LWrist			LThumb			LIndex			LPinky			
		X1	Y1	Z1	X2	Y2	Z2	X3	Y3	Z3	X4	Y4	Z4	X5	Y5	Z5	X6	Y6	Z6	X7	Y7	Z7	X8	Y8	Z8	X9	Y9	Z9	X10	Y10	Z10	X11	Y11	Z11	X12	Y12	Z12	X13	Y13	Z13	X14	Y14	Z14	X15	Y15	Z15	X16	Y16	Z16	X17	Y17	Z17	X18	Y18	Z18	X19	Y19	Z19	X20	Y20	Z20	X21	Y21	Z21	X22	Y22	Z22	X23	Y23	Z23	X24	Y24	Z24	X25	Y25	Z25	X26	Y26	Z26	X27	Y27	Z27	
236	5.363636363636363	0.2747269839639583	0.9081820268996774	0.6279304282845359	0.31267184115096197	0.4954020112872089	0.586710536343218	0.3863671586408032	0.031294249943606176	0.7292264454956374	0.32436161725356943	0.027883953924604382	0.5025833389968011	0.40333307131578533	0.022150413914238852	0.5417316394595654	0.36824604575858805	-0.04441235621967056	0.8284968334964556	0.0754931142812827	0.8992985449409331	0.6753398008168959	0.11354285429857716	0.45115553958053883	0.6563999266762787	0.1871945554463779	0.02871125822101206	0.733819710963638	0.18369018805890908	0.02143730908616167	0.5227848110192223	0.13088084685331	-0.009780446947066417	0.5953085410985806	0.21529011657414573	-0.06758903558716386	0.8267794832511461	0.17656061979207602	1.5165181191509305	0.6128274405473092	0.16722343250779587	1.7786132601489228	0.4786423294350237	0.16652865219255408	1.6119670881321206	0.4442773862794127	0.35005581161252664	1.4453405090645632	0.6113346093855329	0.4396190661329973	1.2128321214711117	0.46348794881560457	0.44627280769242783	1.155551002737137	0.18356422111008092	0.43549175577253607	1.1949553530758474	0.006935565323533163	0.4330064353382298	1.17898573191556	0.0066122389260778874	0.41946684480267404	1.1130984678979856	0.06116055082113166	0.01335218059271909	1.4492114487742733	0.6825444293931608	-0.07278840042115622	1.1847171657747684	0.7076991456843688	-0.06256830412909305	0.9787826821801201	0.5430304752967707	-0.010245630931685658	0.9114700794529741	0.46096357504436325	-0.019842774303395913	0.8855447076385656	0.4478460144478337	-0.056156694971959735	0.8455929040231644	0.5393089756820036	
237	5.386363636363637	0.2758830603549151	0.9072529010607848	0.6289019700291866	0.31305995523496283	0.49517278593774666	0.5884671492571389	0.3856728560500212	0.03227828758297213	0.7287709598306775	0.3249861439526761	0.02701879807056124	0.5047705006764011	0.4033368201278534	0.02216121306157883	0.5417229417586061	0.3679045040276881	-0.04441003610476607	0.8283632949349023	0.07491310759825454	0.8992612637862992	0.672735717925787	0.11508029532249767	0.45107194384858856	0.6571576628316627	0.18728191303091374	0.02884940212948331	0.7338363350403004	0.1843384889813875	0.01968380620633073	0.5241477932692375	0.1309109120549123	-0.00981080068741673	0.5953319037567998	0.21525602214375222	-0.06748223928333974	0.8267995330797517	0.17652382827834556	1.5178264338232332	0.6123333157023296	0.16514352329646462	1.7800756143824177	0.47879427987915346	0.16439960106599522	1.6124437361262425	0.4468433848667837	0.3505548484595762	1.446185425765744	0.6162372066900694	0.44488556113617894	1.214665703208863	0.4768814012142042	0.43878527467627493	1.1516931833657682	0.18975648416472837	0.41369218590789203	1.1827401975204308	0.01444008021491272	0.4138550305952818	1.1645434257806595	0.021687298204268332	0.4134276291406006	1.0994051368103164	0.07553720325842378	0.011810572884466637	1.4477767572864053	0.6813799679983824	-0.07210335495915947	1.1823176491658043	0.7027836201719146	-0.05549921352325752	0.9773092251242911	0.5314524936333767	-0.005871737465893478	0.9077761729108235	0.4591591657859116	-0.016081021180945898	0.8757614837478344	0.44463760372701705	-0.04860526783919933	0.8370019323935317	0.5320838390190892	
238	5.409090909090909	0.27746467970096095	0.9059378541649735	0.6297588499979154	0.313691295842479	0.4945336486005813	0.5907607571368959	0.3850119522451107	0.033227801301051185	0.7282936962344574	0.3254947891408343	0.02657662750915378	0.5073736062204237	0.4033178019813436	0.022142717222799813	0.5417201352239356	0.36752593270302547	-0.044405938883952584	0.82822411961338	0.07459322478276469	0.8986346958223674	0.6699843194577237	0.11683632757548958	0.4507187254659222	0.6583679661918906	0.18739950642394743	0.028905343481672688	0.7338435132380575	0.18557230337127512	0.01695918487206105	0.5265508728371866	0.13096407176538452	-0.009883827639414408	0.5954314251404697	0.21518659719193545	-0.06733804006803945	0.8265883087608235	0.17651279225313338	1.5185680942783029	0.6119874073753041	0.1632704237330794	1.7819166780882467	0.478508175154842	0.16254422284585837	1.6129027115374626	0.4496134864162822	0.3508802099212439	1.4475647462093297	0.6203607887788161	0.44811468993828774	1.2163372626626132	0.4907899519618481	0.4289992431698889	1.146386971524882	0.19778182892926283	0.38972074582375205	1.164572496037597	0.03197177732387149	0.39059218917086286	1.145178142238409	0.040407072254803056	0.4039611939851653	1.085521953599531	0.08986413571171192	0.010533859391512027	1.44640875367432	0.6787291740438304	-0.07085692107297986	1.180080826958029	0.6966849671172323	-0.047335079176523936	0.9757355278232874	0.5178476578929694	0.003817740503782578	0.9009720323681625	0.4582775443076759	-0.007719198810714121	0.8651936903182468	0.44138593364192613	-0.03966786337388213	0.8286661257264802	0.5239822457157005	
239	5.431818181818182	0.27963394810785963	0.9047856486599408	0.6305107549003465	0.3147180269227099	0.4937577994838342	0.5937193865254107	0.3844841942821815	0.034103536324785744	0.7278701156075487	0.3258566859365388	0.026448980537855514	0.509936761699414	0.4032502401824399	0.022101986494341627	0.5417082725392717	0.3671247889510488	-0.044399156875486054	0.8280734619423668	0.07453180359020489	0.8977369367088301	0.6670729437536461	0.11886199107020856	0.4501948295303777	0.6600990875923951	0.18756218343744044	0.028883939537334632	0.733890316903697	0.18714494377430485	0.013785849897431514	0.5295239482165346	0.1310021239335346	-0.009954141853422013	0.5956487787407797	0.21503870684585427	-0.06695026551814219	0.8259667545765824	0.1764620823004937	1.518716130886719	0.6119636135481191	0.1616117439954609	1.7839362756293964	0.47793103480725185	0.16124389664245198	1.6131325881813863	0.4521726024704297	0.3509982312013886	1.4492476970177692	0.6236664257777723	0.44969312401968015	1.217836997929831	0.5027852983221606	0.4163245996817835	1.1398382985860187	0.20430272369095603	0.36377487509362677	1.140806655001036	0.05684965401880818	0.3653962513150272	1.122230084501269	0.06156193914594467	0.3897108623032485	1.0722103957878608	0.10218752458110057	0.009498426378177154	1.445216317832143	0.6753178764056335	-0.06936483944168986	1.1779257936888043	0.6897622267682981	-0.039203339976471456	0.9731249121841979	0.5043116100762142	0.017540335965371634	0.89175391850379	0.4588873288975085	0.004767417294757108	0.855041609425533	0.4387891273117454	-0.030209191976604946	0.8212808643149989	0.5169694316066191	
240	5.454545454545454	0.2823224993354867	0.9040641622805456	0.6312999771736252	0.31621751760141104	0.4928430995022165	0.597524498080994	0.38408108126080565	0.034904007651845495	0.7275156208679742	0.3261924464144979	0.026390455586988736	0.5123540452526059	0.4031510598170767	0.022097276212603663	0.5415805864713567	0.36670731334590695	-0.044388791465920605	0.8279033775317688	0.0747464898561546	0.8968450308862792	0.6640417497051312	0.12111245285288354	0.44948158178188713	0.6623079076956085	0.18775739737619387	0.028778704671470298	0.7339958120861754	0.18882549735471904	0.01086076158760517	0.5327517423426283	0.13101632302527	-0.009979980587822249	0.5959416463238365	0.21479201281290594	-0.0660922326327227	0.824921210254803	0.1764139761550241	1.518524953416352	0.6120231546002909	0.16026854307609978	1.7860023470898478	0.47776391100250953	0.16033304635971057	1.6134198373853714	0.4540912930242242	0.3509370351926483	1.4508414613213216	0.6266717117178195	0.4503212488797629	1.2191757277267987	0.5109883160839389	0.40159015010357807	1.1320173935549065	0.20835776353402385	0.33609637765429806	1.1134914649200416	0.0849354910552031	0.33999450389807695	1.0980922693243376	0.083025716557403	0.37059682923408843	1.058671819233206	0.1137995235999735	0.008530993789274738	1.4443761326811042	0.6722508210952705	-0.06788953670936204	1.175402476679686	0.6827051014365074	-0.03071232548075309	0.968501904590958	0.49246657479759065	0.033509090567828664	0.8821414858048708	0.4605520962922318	0.01982197466671871	0.8460875220276691	0.4372568688349746	-0.019452833649385447	0.8156219789097275	0.5114564707641648	
241	5.477272727272728	0.285337868393192	0.9038534925281734	0.6320167015094676	0.3182247642378902	0.49171754677173385	0.6020565251772254	0.3837506521155154	0.03563286207194866	0.7272063212054518	0.32647810571112146	0.026442328449822514	0.5143152337480315	0.4030401354706906	0.022211153940924877	0.5411473761370621	0.3662754993124073	-0.044375465141366296	0.827722670080889	0.07535894482539056	0.8960813376597156	0.6609760464604639	0.12349240364762078	0.4485442427113552	0.6649741608874125	0.18795557117507086	0.02857865121249012	0.7341195412608105	0.19040553427923562	0.008842807476814409	0.535953395118562	0.1310231297354778	-0.010067278069100447	0.5962144292923013	0.214452880183043	-0.06485197466942028	0.8234888267771048	0.17641088021699536	1.5183205565354194	0.6121467007453187	0.1591973849695119	1.7881945328826372	0.47852594068634424	0.15934116260971784	1.6142200283080834	0.45521719321084847	0.3507569868517875	1.4520510502751143	0.6292655277818688	0.45071247286352845	1.2202068562310482	0.5144276545394604	0.38528245853231413	1.1217623926688034	0.2135871511587205	0.3070849672046171	1.0848724917975205	0.1145859542198782	0.31442935225260704	1.0747040655096582	0.10372242280096237	0.3481991392357295	1.0430819503356699	0.12643256540641207	0.0076503379040731385	1.4440191487342626	0.6703325772633395	-0.06643508180717206	1.172140876212278	0.6763458588659744	-0.019963251085702405	0.9616215092461352	0.48342656284204	0.05046613487641101	0.8740049846558199	0.46195718338408226	0.0363933850628781	0.8393573702209051	0.4361011599210107	-0.0057907041790464	0.812229469255821	0.5069587513011587	
